HIERARCHY
ROOT Hips
{
  OFFSET 0 0 0
  CHANNELS 6 Xposition Yposition Zposition Zrotation Yrotation Xrotation
  JOINT LeftThigh
  {
    OFFSET 8.409438 0 -5.917753
    CHANNELS 3 Zrotation Yrotation Xrotation
    JOINT LeftLeg
    {
      OFFSET 0 0 -42.358652
      CHANNELS 3 Zrotation Yrotation Xrotation
      JOINT LeftFoot
      {
        OFFSET 0 0 -39.357303
        CHANNELS 3 Zrotation Yrotation Xrotation
      }
    }
  }
  JOINT RightThigh
  {
    OFFSET -8.409438 0 -5.917753
    CHANNELS 3 Zrotation Yrotation Xrotation
    JOINT RightLeg
    {
      OFFSET 0 0 -42.358652
      CHANNELS 3 Zrotation Yrotation Xrotation
      JOINT RightFoot
      {
        OFFSET 0 0 -39.357303
        CHANNELS 3 Zrotation Yrotation Xrotation
      }
    }
  }
  JOINT SpineLow
  {
    OFFSET 0 0 4.719101
    CHANNELS 3 Zrotation Yrotation Xrotation
    JOINT SpineMid
    {
      OFFSET 0 0 12.899191
      CHANNELS 3 Zrotation Yrotation Xrotation
      JOINT Chest
      {
        OFFSET 0 0 12.899191
        CHANNELS 3 Zrotation Yrotation Xrotation
        JOINT LeftShoulder
        {
          OFFSET 7.550562 1.41573 9.438202
          CHANNELS 3 Zrotation Yrotation Xrotation
          JOINT LeftArm
          {
            OFFSET 9.155056 0 4.247191
            CHANNELS 3 Zrotation Yrotation Xrotation
            JOINT LeftForearm
            {
              OFFSET 0 0 25.771955
              CHANNELS 3 Zrotation Yrotation Xrotation
              JOINT LeftHand
              {
                OFFSET 0 0 25.197169
                CHANNELS 3 Zrotation Yrotation Xrotation
              }
            }
          }
        }
        JOINT RightShoulder
        {
          OFFSET -7.550562 1.41573 9.438202
          CHANNELS 3 Zrotation Yrotation Xrotation
          JOINT RightArm
          {
            OFFSET -9.155056 0 4.247191
            CHANNELS 3 Zrotation Yrotation Xrotation
            JOINT RightForearm
            {
              OFFSET 0 0 -25.771955
              CHANNELS 3 Zrotation Yrotation Xrotation
              JOINT RightHand
              {
                OFFSET 0 0 -25.197169
                CHANNELS 3 Zrotation Yrotation Xrotation
              }
            }
          }
        }
        JOINT Neck
        {
          OFFSET 0 0 15.101124
          CHANNELS 3 Zrotation Yrotation Xrotation
          JOINT Head
          {
            OFFSET 0 0 11.325843
            CHANNELS 3 Zrotation Yrotation Xrotation
            End Site
            {
              OFFSET 0 0 14.157303
            }
          }
        }
      }
    }
  }
}
MOTION
Frames: 16
Frame Time: 0.0
0.0  93.25843  0.0  -0.514159  8.360741  -87.150008  13.703789  -16.324482  -10.668367  -14.684981  2.945868  13.288468  -3.995256  -1.539376  -2.249978  -8.379664  4.543407  -7.456019  -11.108164  6.299428  9.321397  -1.339481  -0.043571  -1.213321  0.045834  -0.058937  -0.32631  0.126077  -0.160477  -0.892049  0.126077  -0.160477  -0.892049  -20.284949  22.004827  2.248315  150.60882  41.858065  -144.67928  5.272114  -6.47951  39.596018  73.495264  -23.520276  17.492256  4.255806  -8.237895  23.538353  92.016591  28.861068  43.886008  -38.873808  29.204168  -103.830388  90.623046  -18.407703  8.998467  -14.34351  -2.325586  -3.499485  -10.769884  -1.663196  -2.680626  
0.0  93.25843  0.0  -0.797533  9.141723  -87.142042  13.94901  -16.364028  -11.156644  -16.334961  3.262179  13.493701  -4.293199  -1.602573  -2.464695  -8.103348  3.954111  -7.636099  -12.24907  7.033421  9.963992  -1.412743  0.096367  -1.317312  -0.101941  -0.090566  -0.304044  -0.277504  -0.24883  -0.830694  -0.277504  -0.24883  -0.830694  -20.193124  22.169216  2.204797  151.119794  42.154802  -144.611097  4.909385  -6.586488  40.583926  72.602916  -23.545655  18.596505  4.173792  -8.210383  23.261445  92.976488  29.046217  44.595891  -38.723564  28.11483  -104.806788  90.750153  -18.088939  8.623916  -14.445751  -2.470576  -3.544315  -10.847389  -1.770387  -2.718071  
0.0  93.25843  0.0  -0.9548  9.488513  -86.977702  13.802487  -16.24484  -11.423021  -17.501775  3.429909  13.387593  -4.193704  -1.616947  -2.398279  -8.147656  3.481889  -8.124275  -12.757451  7.812625  10.657268  -1.38461  0.030858  -1.404928  -0.181055  -0.100489  -0.311717  -0.493595  -0.277004  -0.851294  -0.493595  -0.277004  -0.851295  -20.073096  22.238471  2.292562  152.477017  42.251185  -144.126071  4.723691  -6.55767  41.811026  72.082393  -23.54816  19.362433  4.143975  -8.180149  23.205124  93.62462  29.405722  45.264488  -38.385553  26.682437  -105.640458  90.972906  -17.71589  8.34381  -14.647159  -2.659369  -3.573474  -10.999386  -1.910251  -2.745289  
0.0  93.25843  0.0  -1.029824  9.400547  -86.762625  13.23085  -16.000747  -11.437397  -18.165247  3.412164  13.132447  -3.661497  -1.630886  -2.03077  -8.287537  3.04889  -8.73542  -12.955031  8.555225  11.263165  -1.121759  0.120799  -1.422535  -0.18858  -0.104992  -0.337171  -0.513993  -0.289605  -0.920804  -0.513993  -0.289605  -0.920804  -19.985935  22.310679  2.511571  154.275575  42.253339  -143.309968  4.393678  -6.353309  43.057505  72.003228  -23.636437  19.406712  3.77807  -8.035381  23.173879  94.294449  29.633751  45.895822  -37.961556  25.152319  -106.398335  91.107313  -17.223835  8.084268  -14.724392  -2.721186  -3.485566  -11.057157  -1.958326  -2.681153  
0.0  93.25843  0.0  -1.047449  8.831695  -86.518952  12.746468  -15.582789  -11.381502  -18.426568  3.100364  13.08649  -2.957527  -1.647086  -1.61748  -8.189246  2.600942  -9.437052  -11.99983  9.303235  12.156054  -1.1882  0.107829  -1.469927  -0.122354  -0.09265  -0.370737  -0.333015  -0.255116  -1.012905  -0.333015  -0.255116  -1.012905  -19.937283  22.254808  2.826016  156.542649  42.21862  -142.318847  3.883684  -5.954942  44.499226  72.184418  -23.817202  18.901422  3.383469  -7.932569  23.193834  94.672371  29.838611  46.396162  -37.624786  23.861674  -106.333971  90.742377  -15.736467  7.81301  -14.818637  -2.790851  -3.352075  -11.127478  -2.013328  -2.583099  
0.0  93.25843  0.0  -1.00736  7.684036  -86.480914  12.886157  -15.077243  -11.002152  -18.271102  2.498507  13.347036  -2.607856  -1.748247  -1.483405  -7.699518  2.198625  -10.037123  -11.624606  10.047871  12.857379  -1.065811  0.164014  -1.495381  -0.008193  -0.044625  -0.341928  -0.021765  -0.12209  -0.934613  -0.021765  -0.12209  -0.934613  -19.730134  21.923241  3.10441  159.194512  42.06443  -141.135646  3.244317  -5.551409  46.134992  72.354472  -24.002163  18.213358  2.892143  -7.979208  22.87208  95.182638  29.782059  46.906605  -37.004643  22.149801  -106.953663  90.487679  -14.859626  7.692349  -14.771737  -3.022024  -3.262391  -11.092736  -2.189251  -2.521098  
0.0  93.25843  0.0  -0.92908  6.20955  -86.59701  13.286647  -14.747344  -10.334826  -17.498634  1.819882  13.793021  -2.776716  -1.961161  -1.731977  -7.049409  1.794845  -10.530162  -11.181061  10.800648  13.536287  -0.653114  0.35637  -1.483321  0.062255  0.014376  -0.281116  0.169998  0.040019  -0.768365  0.169998  0.040019  -0.768364  -19.042394  21.525687  3.422619  162.164401  41.741149  -139.936655  2.505778  -5.299134  48.155906  72.420483  -24.12609  17.60969  2.880661  -8.153314  22.450134  95.585378  29.608689  47.428183  -36.182484  19.982791  -107.51273  90.393634  -13.876457  7.654177  -14.425759  -3.31881  -3.196823  -10.834003  -2.415325  -2.477021  
0.0  93.25843  0.0  -0.837467  4.48998  -86.55775  13.227915  -14.683131  -9.745547  -15.544723  1.177907  14.448273  -3.619452  -2.039279  -2.318186  -6.521347  1.376889  -11.349106  -10.489051  11.466069  14.287327  -0.599253  0.446883  -1.489523  0.141834  0.062063  -0.256986  0.387026  0.171148  -0.702081  0.387026  0.171148  -0.702081  -18.330749  21.243731  3.785358  165.340359  41.172191  -138.749865  1.691294  -5.245815  50.478416  72.437957  -24.235295  17.354148  2.75911  -8.342973  22.063037  96.016819  29.316205  48.018978  -35.236091  17.630189  -108.065671  90.234232  -12.785872  7.737014  -14.019779  -3.580653  -3.125428  -10.53005  -2.615513  -2.427079  
0.0  93.25843  0.0  -0.720753  2.00134  -86.417659  13.795852  -14.464927  -8.953981  -14.116089  0.58979  14.852547  -4.209076  -2.072216  -3.06844  -5.691174  0.972604  -12.374658  -9.518833  11.99881  14.964135  -0.586394  0.601202  -1.472125  0.282518  0.091743  -0.281008  0.771161  0.254046  -0.767028  0.771161  0.254046  -0.767028  -17.445005  21.15113  4.14024  168.505386  40.44168  -137.715245  0.756132  -5.320288  52.960773  72.306705  -24.485793  17.374997  2.722178  -8.422925  21.970818  96.473794  29.088396  48.631476  -34.416156  15.583714  -108.655753  89.625613  -11.617774  7.82239  -13.434775  -3.736312  -3.0134  -10.091226  -2.73765  -2.342848  
0.0  93.25843  0.0  -0.566966  -1.006825  -86.355312  14.122898  -14.206009  -7.76306  -12.948848  0.325337  14.606388  -4.101284  -2.130059  -3.082947  -4.878689  0.610786  -13.379472  -8.378587  12.414448  15.508697  -0.518882  0.731041  -1.502772  0.444215  0.117973  -0.302657  1.212729  0.328009  -0.825091  1.212729  0.328009  -0.825091  -16.53903  21.163442  4.239339  172.196501  39.611033  -136.868253  0.124582  -5.150293  55.940449  72.147793  -24.881805  17.345423  2.749649  -8.379832  22.121234  97.032357  29.072562  49.186503  -33.72978  13.761933  -109.20345  88.840971  -10.444131  7.838175  -12.635161  -3.844095  -2.925814  -9.491483  -2.824104  -2.274286  
0.0  93.25843  0.0  -0.499936  -4.659099  -86.343192  14.29767  -13.985261  -6.533059  -11.896468  0.306161  13.929064  -3.152862  -2.064685  -2.288761  -4.335741  0.150093  -14.259262  -6.890252  12.683653  15.799453  -0.25678  0.805255  -1.584327  0.658779  0.136416  -0.317439  1.798899  0.381485  -0.863907  1.798899  0.381485  -0.863907  -15.6379  21.184043  4.191751  176.397586  38.925957  -136.124526  -0.31028  -4.964775  59.49905  71.745987  -25.179013  17.748856  2.716975  -8.22759  22.500259  97.763979  29.319066  49.623662  -33.242303  12.161832  -109.695991  87.997882  -9.373788  7.657684  -11.65812  -3.937417  -2.886354  -8.758986  -2.899347  -2.240106  
0.0  93.25843  0.0  -0.476718  -9.194024  -86.37413  15.817708  -13.309439  -5.233744  -11.697126  0.104641  13.249113  -1.942742  -2.32424  -1.690991  -3.450204  -0.234487  -15.129015  -5.309281  12.70327  15.998124  -0.035402  0.834327  -1.661512  0.970654  0.150559  -0.322572  2.651158  0.424398  -0.875524  2.651158  0.424398  -0.875524  -14.812602  21.072722  4.029849  -179.622971  38.346096  -135.754669  -0.191228  -4.651858  63.42514  71.680473  -25.673437  17.832294  2.535892  -7.978384  22.92955  98.678314  29.664341  49.976927  -32.898845  10.747089  -110.068153  87.113738  -8.351224  7.300975  -10.519698  -4.017861  -2.865791  -7.905599  -2.965203  -2.21851  
0.0  93.25843  0.0  -0.410645  -14.78911  -86.453431  18.594815  -12.69781  -4.151463  -10.951917  -0.226547  13.263475  -2.478017  -2.389319  -2.309978  -1.928205  -0.459681  -16.048276  -3.744117  12.446273  16.11376  0.197157  0.875239  -1.655913  1.395335  0.159328  -0.335603  3.811769  0.454688  -0.90781  3.811769  0.454688  -0.90781  -13.86668  20.914908  4.053692  -177.197763  37.695763  -135.940624  -1.456352  -7.345819  67.454908  69.457136  -25.925009  19.860047  2.349837  -7.687348  23.35388  99.658441  29.917486  50.344036  -32.4779  9.228449  -110.423236  86.564308  -7.409153  6.917069  -9.243194  -4.002073  -2.769621  -6.947898  -2.960558  -2.137571  
0.0  93.25843  0.0  -0.423144  -20.838696  -86.333929  21.254951  -12.197129  -3.213701  -9.49043  -0.569224  13.257502  -2.654582  -2.278702  -2.335162  -0.231169  -0.742368  -17.27109  -2.254117  12.005228  16.218812  0.399956  0.889045  -1.588218  1.81626  0.162875  -0.378084  4.961958  0.473283  -1.020574  4.961958  0.473283  -1.020574  -12.495033  20.466749  4.389016  -175.628883  36.967199  -136.333362  -1.120774  -7.423861  72.30633  70.874058  -26.618918  18.839057  2.328541  -7.460135  23.604561  100.645379  30.048014  50.681123  -32.134039  7.876563  -110.736242  86.134128  -6.419052  6.456347  -7.761901  -4.031054  -2.559086  -5.836042  -2.991437  -1.970172  
0.0  93.25843  0.0  -0.240353  -27.603625  -86.190007  23.826271  -11.399723  -1.807167  -7.857317  -0.819602  12.617388  -2.615784  -2.270582  -2.084369  1.986914  -0.828792  -18.677669  -0.966395  11.514474  16.266093  0.707268  0.849086  -1.478504  2.235765  0.186788  -0.443948  6.107703  0.55106  -1.195064  6.107704  0.55106  -1.195064  -10.502332  19.992572  4.955258  -174.016041  36.277585  -136.676688  -2.03588  -10.146155  77.289611  68.836095  -27.481538  20.31273  2.635948  -7.245358  23.609414  101.638639  29.961347  51.006348  -31.952988  6.893351  -111.037608  85.59904  -5.323542  5.825064  -6.016941  -4.056512  -2.202419  -4.525525  -3.021105  -1.691316  
0.0  93.25843  0.0  0.019666  -34.704298  -86.136285  26.236481  -10.363258  -0.189397  -6.477079  -0.984418  11.770676  -1.733726  -2.456575  -1.665949  4.333564  -0.895928  -20.074101  0.285122  10.983365  16.199328  1.000088  0.727889  -1.328478  2.635536  0.227101  -0.516609  7.198975  0.676127  -1.38549  7.198975  0.676127  -1.385489  -8.44873  19.556734  5.576585  -171.677632  35.988209  -136.595437  -2.717959  -11.970048  82.377856  66.781108  -28.677129  21.136791  2.987064  -6.97496  23.708808  102.645193  30.083057  51.239929  -32.059746  6.434653  -111.284675  84.639115  -4.119555  4.911979  -4.2058  -4.195506  -1.706166  -3.164698  -3.1351  -1.308044  
